<mxfile host="app.diagrams.net" agent="Mozilla/5.0 (Windows NT 10.0; Win64; x64) AppleWebKit/537.36 (KHTML, like Gecko) Chrome/138.0.0.0 Safari/537.36" version="28.0.7" pages="2">
  <diagram name="Page-1" id="BDJX705sDNhgPDxHKTNx">
    <mxGraphModel dx="1453" dy="933" grid="1" gridSize="10" guides="1" tooltips="1" connect="1" arrows="1" fold="1" page="1" pageScale="1" pageWidth="827" pageHeight="1169" math="0" shadow="0">
      <root>
        <mxCell id="0" />
        <mxCell id="1" parent="0" />
        <mxCell id="Ot3OW3-0B2EcUUwlRXt1-23" value="User" style="shape=umlLifeline;perimeter=lifelinePerimeter;whiteSpace=wrap;html=1;container=1;dropTarget=0;collapsible=0;recursiveResize=0;outlineConnect=0;portConstraint=eastwest;newEdgeStyle={&quot;curved&quot;:0,&quot;rounded&quot;:0};" vertex="1" parent="1">
          <mxGeometry x="40" y="80" width="100" height="770" as="geometry" />
        </mxCell>
        <mxCell id="Ot3OW3-0B2EcUUwlRXt1-46" value="" style="html=1;points=[[0,0,0,0,5],[0,1,0,0,-5],[1,0,0,0,5],[1,1,0,0,-5]];perimeter=orthogonalPerimeter;outlineConnect=0;targetShapes=umlLifeline;portConstraint=eastwest;newEdgeStyle={&quot;curved&quot;:0,&quot;rounded&quot;:0};" vertex="1" parent="Ot3OW3-0B2EcUUwlRXt1-23">
          <mxGeometry x="45" y="60" width="10" height="280" as="geometry" />
        </mxCell>
        <mxCell id="Ot3OW3-0B2EcUUwlRXt1-66" value="" style="html=1;points=[[0,0,0,0,5],[0,1,0,0,-5],[1,0,0,0,5],[1,1,0,0,-5]];perimeter=orthogonalPerimeter;outlineConnect=0;targetShapes=umlLifeline;portConstraint=eastwest;newEdgeStyle={&quot;curved&quot;:0,&quot;rounded&quot;:0};" vertex="1" parent="Ot3OW3-0B2EcUUwlRXt1-23">
          <mxGeometry x="45" y="360" width="10" height="390" as="geometry" />
        </mxCell>
        <mxCell id="Ot3OW3-0B2EcUUwlRXt1-24" value="Interface" style="shape=umlLifeline;perimeter=lifelinePerimeter;whiteSpace=wrap;html=1;container=1;dropTarget=0;collapsible=0;recursiveResize=0;outlineConnect=0;portConstraint=eastwest;newEdgeStyle={&quot;curved&quot;:0,&quot;rounded&quot;:0};" vertex="1" parent="1">
          <mxGeometry x="320" y="80" width="100" height="770" as="geometry" />
        </mxCell>
        <mxCell id="Ot3OW3-0B2EcUUwlRXt1-47" value="" style="html=1;points=[[0,0,0,0,5],[0,1,0,0,-5],[1,0,0,0,5],[1,1,0,0,-5]];perimeter=orthogonalPerimeter;outlineConnect=0;targetShapes=umlLifeline;portConstraint=eastwest;newEdgeStyle={&quot;curved&quot;:0,&quot;rounded&quot;:0};" vertex="1" parent="Ot3OW3-0B2EcUUwlRXt1-24">
          <mxGeometry x="45" y="60" width="10" height="280" as="geometry" />
        </mxCell>
        <mxCell id="Ot3OW3-0B2EcUUwlRXt1-67" value="" style="html=1;points=[[0,0,0,0,5],[0,1,0,0,-5],[1,0,0,0,5],[1,1,0,0,-5]];perimeter=orthogonalPerimeter;outlineConnect=0;targetShapes=umlLifeline;portConstraint=eastwest;newEdgeStyle={&quot;curved&quot;:0,&quot;rounded&quot;:0};" vertex="1" parent="Ot3OW3-0B2EcUUwlRXt1-24">
          <mxGeometry x="45" y="360" width="10" height="390" as="geometry" />
        </mxCell>
        <mxCell id="Ot3OW3-0B2EcUUwlRXt1-25" value="System" style="shape=umlLifeline;perimeter=lifelinePerimeter;whiteSpace=wrap;html=1;container=1;dropTarget=0;collapsible=0;recursiveResize=0;outlineConnect=0;portConstraint=eastwest;newEdgeStyle={&quot;curved&quot;:0,&quot;rounded&quot;:0};" vertex="1" parent="1">
          <mxGeometry x="600" y="80" width="100" height="770" as="geometry" />
        </mxCell>
        <mxCell id="Ot3OW3-0B2EcUUwlRXt1-41" value="" style="html=1;points=[[0,0,0,0,5],[0,1,0,0,-5],[1,0,0,0,5],[1,1,0,0,-5]];perimeter=orthogonalPerimeter;outlineConnect=0;targetShapes=umlLifeline;portConstraint=eastwest;newEdgeStyle={&quot;curved&quot;:0,&quot;rounded&quot;:0};" vertex="1" parent="Ot3OW3-0B2EcUUwlRXt1-25">
          <mxGeometry x="45" y="200" width="10" height="40" as="geometry" />
        </mxCell>
        <mxCell id="Ot3OW3-0B2EcUUwlRXt1-49" value="" style="html=1;points=[[0,0,0,0,5],[0,1,0,0,-5],[1,0,0,0,5],[1,1,0,0,-5]];perimeter=orthogonalPerimeter;outlineConnect=0;targetShapes=umlLifeline;portConstraint=eastwest;newEdgeStyle={&quot;curved&quot;:0,&quot;rounded&quot;:0};" vertex="1" parent="Ot3OW3-0B2EcUUwlRXt1-25">
          <mxGeometry x="45" y="60" width="10" height="280" as="geometry" />
        </mxCell>
        <mxCell id="Ot3OW3-0B2EcUUwlRXt1-63" value="Generate quizzes" style="html=1;align=left;spacingLeft=2;endArrow=block;rounded=0;edgeStyle=orthogonalEdgeStyle;curved=0;rounded=0;" edge="1" parent="Ot3OW3-0B2EcUUwlRXt1-25" source="Ot3OW3-0B2EcUUwlRXt1-49" target="Ot3OW3-0B2EcUUwlRXt1-49">
          <mxGeometry relative="1" as="geometry">
            <mxPoint x="60" y="210" as="sourcePoint" />
            <Array as="points">
              <mxPoint x="122" y="210" />
              <mxPoint x="122" y="260" />
            </Array>
            <mxPoint x="61" y="260.05999999999995" as="targetPoint" />
          </mxGeometry>
        </mxCell>
        <mxCell id="Ot3OW3-0B2EcUUwlRXt1-26" value="Database" style="shape=umlLifeline;perimeter=lifelinePerimeter;whiteSpace=wrap;html=1;container=1;dropTarget=0;collapsible=0;recursiveResize=0;outlineConnect=0;portConstraint=eastwest;newEdgeStyle={&quot;curved&quot;:0,&quot;rounded&quot;:0};" vertex="1" parent="1">
          <mxGeometry x="920" y="90" width="100" height="800" as="geometry" />
        </mxCell>
        <mxCell id="Ot3OW3-0B2EcUUwlRXt1-51" value="" style="html=1;points=[[0,0,0,0,5],[0,1,0,0,-5],[1,0,0,0,5],[1,1,0,0,-5]];perimeter=orthogonalPerimeter;outlineConnect=0;targetShapes=umlLifeline;portConstraint=eastwest;newEdgeStyle={&quot;curved&quot;:0,&quot;rounded&quot;:0};" vertex="1" parent="Ot3OW3-0B2EcUUwlRXt1-26">
          <mxGeometry x="45" y="60" width="10" height="280" as="geometry" />
        </mxCell>
        <mxCell id="Ot3OW3-0B2EcUUwlRXt1-70" value="" style="html=1;points=[[0,0,0,0,5],[0,1,0,0,-5],[1,0,0,0,5],[1,1,0,0,-5]];perimeter=orthogonalPerimeter;outlineConnect=0;targetShapes=umlLifeline;portConstraint=eastwest;newEdgeStyle={&quot;curved&quot;:0,&quot;rounded&quot;:0};" vertex="1" parent="Ot3OW3-0B2EcUUwlRXt1-26">
          <mxGeometry x="45" y="350" width="10" height="390" as="geometry" />
        </mxCell>
        <mxCell id="Ot3OW3-0B2EcUUwlRXt1-29" value="Extract text" style="html=1;verticalAlign=bottom;endArrow=block;curved=0;rounded=0;" edge="1" parent="1" source="Ot3OW3-0B2EcUUwlRXt1-47">
          <mxGeometry width="80" relative="1" as="geometry">
            <mxPoint x="380" y="190" as="sourcePoint" />
            <mxPoint x="645" y="190" as="targetPoint" />
          </mxGeometry>
        </mxCell>
        <mxCell id="Ot3OW3-0B2EcUUwlRXt1-30" value="Save in database" style="html=1;verticalAlign=bottom;endArrow=block;curved=0;rounded=0;" edge="1" parent="1" target="Ot3OW3-0B2EcUUwlRXt1-51">
          <mxGeometry width="80" relative="1" as="geometry">
            <mxPoint x="650" y="220" as="sourcePoint" />
            <mxPoint x="960" y="220" as="targetPoint" />
            <Array as="points" />
          </mxGeometry>
        </mxCell>
        <mxCell id="Ot3OW3-0B2EcUUwlRXt1-31" value="Confirm save" style="html=1;verticalAlign=bottom;endArrow=block;curved=0;rounded=0;" edge="1" parent="1">
          <mxGeometry width="80" relative="1" as="geometry">
            <mxPoint x="965" y="260" as="sourcePoint" />
            <mxPoint x="655" y="260" as="targetPoint" />
          </mxGeometry>
        </mxCell>
        <mxCell id="Ot3OW3-0B2EcUUwlRXt1-44" value="Return set of quizzes" style="html=1;verticalAlign=bottom;endArrow=block;curved=0;rounded=0;" edge="1" parent="1">
          <mxGeometry width="80" relative="1" as="geometry">
            <mxPoint x="650" y="380" as="sourcePoint" />
            <mxPoint x="370" y="380" as="targetPoint" />
          </mxGeometry>
        </mxCell>
        <mxCell id="Ot3OW3-0B2EcUUwlRXt1-45" value="Display questions" style="html=1;verticalAlign=bottom;endArrow=block;curved=0;rounded=0;" edge="1" parent="1" target="Ot3OW3-0B2EcUUwlRXt1-46">
          <mxGeometry width="80" relative="1" as="geometry">
            <mxPoint x="370" y="400" as="sourcePoint" />
            <mxPoint x="100" y="400" as="targetPoint" />
          </mxGeometry>
        </mxCell>
        <mxCell id="Ot3OW3-0B2EcUUwlRXt1-48" value="" style="html=1;verticalAlign=bottom;endArrow=block;curved=0;rounded=0;" edge="1" parent="1" target="Ot3OW3-0B2EcUUwlRXt1-47">
          <mxGeometry width="80" relative="1" as="geometry">
            <mxPoint x="90" y="160" as="sourcePoint" />
            <mxPoint x="370" y="160" as="targetPoint" />
          </mxGeometry>
        </mxCell>
        <mxCell id="Ot3OW3-0B2EcUUwlRXt1-50" value="Upload files" style="text;html=1;align=center;verticalAlign=middle;resizable=0;points=[];autosize=1;strokeColor=none;fillColor=none;" vertex="1" parent="1">
          <mxGeometry x="175" y="130" width="90" height="30" as="geometry" />
        </mxCell>
        <mxCell id="Ot3OW3-0B2EcUUwlRXt1-54" value="" style="html=1;verticalAlign=bottom;endArrow=block;curved=0;rounded=0;" edge="1" parent="1" target="Ot3OW3-0B2EcUUwlRXt1-24">
          <mxGeometry width="80" relative="1" as="geometry">
            <mxPoint x="90" y="480" as="sourcePoint" />
            <mxPoint x="365" y="480" as="targetPoint" />
          </mxGeometry>
        </mxCell>
        <mxCell id="Ot3OW3-0B2EcUUwlRXt1-55" value="Take a test" style="text;html=1;align=center;verticalAlign=middle;resizable=0;points=[];autosize=1;strokeColor=none;fillColor=none;" vertex="1" parent="1">
          <mxGeometry x="180" y="450" width="80" height="30" as="geometry" />
        </mxCell>
        <mxCell id="Ot3OW3-0B2EcUUwlRXt1-56" value="" style="html=1;verticalAlign=bottom;endArrow=block;curved=0;rounded=0;" edge="1" parent="1" target="Ot3OW3-0B2EcUUwlRXt1-25">
          <mxGeometry width="80" relative="1" as="geometry">
            <mxPoint x="367.5" y="520" as="sourcePoint" />
            <mxPoint x="642.5" y="520" as="targetPoint" />
          </mxGeometry>
        </mxCell>
        <mxCell id="Ot3OW3-0B2EcUUwlRXt1-57" value="Return answers" style="text;html=1;align=center;verticalAlign=middle;resizable=0;points=[];autosize=1;strokeColor=none;fillColor=none;" vertex="1" parent="1">
          <mxGeometry x="450" y="490" width="110" height="30" as="geometry" />
        </mxCell>
        <mxCell id="Ot3OW3-0B2EcUUwlRXt1-58" value="" style="html=1;verticalAlign=bottom;endArrow=block;curved=0;rounded=0;" edge="1" parent="1" source="Ot3OW3-0B2EcUUwlRXt1-68">
          <mxGeometry width="80" relative="1" as="geometry">
            <mxPoint x="649.3235294117646" y="560" as="sourcePoint" />
            <mxPoint x="969.5" y="560" as="targetPoint" />
          </mxGeometry>
        </mxCell>
        <mxCell id="Ot3OW3-0B2EcUUwlRXt1-59" value="Save answers" style="text;html=1;align=center;verticalAlign=middle;resizable=0;points=[];autosize=1;strokeColor=none;fillColor=none;" vertex="1" parent="1">
          <mxGeometry x="750" y="530" width="100" height="30" as="geometry" />
        </mxCell>
        <mxCell id="Ot3OW3-0B2EcUUwlRXt1-60" value="Confirm save" style="html=1;verticalAlign=bottom;endArrow=block;curved=0;rounded=0;" edge="1" parent="1" target="Ot3OW3-0B2EcUUwlRXt1-68">
          <mxGeometry x="-0.0037" width="80" relative="1" as="geometry">
            <mxPoint x="969.5" y="600" as="sourcePoint" />
            <mxPoint x="660" y="600" as="targetPoint" />
            <mxPoint as="offset" />
          </mxGeometry>
        </mxCell>
        <mxCell id="Ot3OW3-0B2EcUUwlRXt1-61" value="Upgrade progress" style="html=1;align=left;spacingLeft=2;endArrow=block;rounded=0;edgeStyle=orthogonalEdgeStyle;curved=0;rounded=0;" edge="1" parent="1" source="Ot3OW3-0B2EcUUwlRXt1-25">
          <mxGeometry relative="1" as="geometry">
            <mxPoint x="656" y="680.06" as="sourcePoint" />
            <Array as="points">
              <mxPoint x="711" y="660" />
              <mxPoint x="711" y="710" />
            </Array>
            <mxPoint x="650" y="710.06" as="targetPoint" />
          </mxGeometry>
        </mxCell>
        <mxCell id="Ot3OW3-0B2EcUUwlRXt1-64" value="Show progress data" style="html=1;verticalAlign=bottom;endArrow=block;curved=0;rounded=0;" edge="1" parent="1">
          <mxGeometry x="-0.0037" width="80" relative="1" as="geometry">
            <mxPoint x="650" y="760" as="sourcePoint" />
            <mxPoint x="370" y="760" as="targetPoint" />
            <mxPoint as="offset" />
          </mxGeometry>
        </mxCell>
        <mxCell id="Ot3OW3-0B2EcUUwlRXt1-65" value="Display progress information" style="html=1;verticalAlign=bottom;endArrow=block;curved=0;rounded=0;" edge="1" parent="1" target="Ot3OW3-0B2EcUUwlRXt1-66">
          <mxGeometry x="-0.0037" width="80" relative="1" as="geometry">
            <mxPoint x="370" y="800.0000000000002" as="sourcePoint" />
            <mxPoint x="100" y="800.0000000000002" as="targetPoint" />
            <mxPoint as="offset" />
          </mxGeometry>
        </mxCell>
        <mxCell id="Ot3OW3-0B2EcUUwlRXt1-69" value="" style="html=1;verticalAlign=bottom;endArrow=block;curved=0;rounded=0;" edge="1" parent="1" target="Ot3OW3-0B2EcUUwlRXt1-68">
          <mxGeometry width="80" relative="1" as="geometry">
            <mxPoint x="649.3235294117646" y="560" as="sourcePoint" />
            <mxPoint x="969.5" y="560" as="targetPoint" />
          </mxGeometry>
        </mxCell>
        <mxCell id="Ot3OW3-0B2EcUUwlRXt1-68" value="" style="html=1;points=[[0,0,0,0,5],[0,1,0,0,-5],[1,0,0,0,5],[1,1,0,0,-5]];perimeter=orthogonalPerimeter;outlineConnect=0;targetShapes=umlLifeline;portConstraint=eastwest;newEdgeStyle={&quot;curved&quot;:0,&quot;rounded&quot;:0};" vertex="1" parent="1">
          <mxGeometry x="645" y="440" width="10" height="390" as="geometry" />
        </mxCell>
      </root>
    </mxGraphModel>
  </diagram>
  <diagram id="AwBRZlMkhlK2sOpwWusx" name="Page-2">
    <mxGraphModel dx="2571" dy="1120" grid="1" gridSize="10" guides="1" tooltips="1" connect="1" arrows="1" fold="1" page="1" pageScale="1" pageWidth="827" pageHeight="1169" math="0" shadow="0">
      <root>
        <mxCell id="0" />
        <mxCell id="1" parent="0" />
        <mxCell id="Mygo9_ZUIF-GsIIBd7cb-1" value="&lt;font style=&quot;font-size: 23px;&quot;&gt;User&lt;/font&gt;" style="html=1;whiteSpace=wrap;" vertex="1" parent="1">
          <mxGeometry x="-210" y="270" width="110" height="50" as="geometry" />
        </mxCell>
        <mxCell id="Mygo9_ZUIF-GsIIBd7cb-2" value="&lt;font style=&quot;font-size: 23px;&quot;&gt;Interface&lt;/font&gt;" style="html=1;whiteSpace=wrap;" vertex="1" parent="1">
          <mxGeometry x="600" y="270" width="110" height="50" as="geometry" />
        </mxCell>
        <mxCell id="Mygo9_ZUIF-GsIIBd7cb-3" value="&lt;font style=&quot;font-size: 23px;&quot;&gt;System&lt;/font&gt;" style="html=1;whiteSpace=wrap;" vertex="1" parent="1">
          <mxGeometry x="1310" y="270" width="110" height="50" as="geometry" />
        </mxCell>
        <mxCell id="Mygo9_ZUIF-GsIIBd7cb-4" value="&lt;font style=&quot;font-size: 23px;&quot;&gt;Database&lt;/font&gt;" style="html=1;whiteSpace=wrap;" vertex="1" parent="1">
          <mxGeometry x="950" y="860" width="110" height="50" as="geometry" />
        </mxCell>
        <mxCell id="Mygo9_ZUIF-GsIIBd7cb-9" value="" style="endArrow=none;html=1;rounded=0;exitX=1;exitY=0.5;exitDx=0;exitDy=0;entryX=0;entryY=0.5;entryDx=0;entryDy=0;" edge="1" parent="1" source="Mygo9_ZUIF-GsIIBd7cb-1" target="Mygo9_ZUIF-GsIIBd7cb-2">
          <mxGeometry relative="1" as="geometry">
            <mxPoint x="290" y="300" as="sourcePoint" />
            <mxPoint x="590" y="295" as="targetPoint" />
          </mxGeometry>
        </mxCell>
        <mxCell id="Mygo9_ZUIF-GsIIBd7cb-11" value="" style="endArrow=none;html=1;rounded=0;exitX=1;exitY=0.5;exitDx=0;exitDy=0;entryX=0;entryY=0.5;entryDx=0;entryDy=0;" edge="1" parent="1" target="Mygo9_ZUIF-GsIIBd7cb-3">
          <mxGeometry relative="1" as="geometry">
            <mxPoint x="700" y="293.57" as="sourcePoint" />
            <mxPoint x="1150" y="293.57" as="targetPoint" />
          </mxGeometry>
        </mxCell>
        <mxCell id="Mygo9_ZUIF-GsIIBd7cb-16" value="" style="endArrow=none;html=1;rounded=0;entryX=0.5;entryY=1;entryDx=0;entryDy=0;exitX=0.75;exitY=0;exitDx=0;exitDy=0;" edge="1" parent="1" source="Mygo9_ZUIF-GsIIBd7cb-4" target="Mygo9_ZUIF-GsIIBd7cb-3">
          <mxGeometry relative="1" as="geometry">
            <mxPoint x="870" y="720" as="sourcePoint" />
            <mxPoint x="1450" y="600" as="targetPoint" />
          </mxGeometry>
        </mxCell>
        <mxCell id="Mygo9_ZUIF-GsIIBd7cb-20" value="" style="endArrow=classic;html=1;rounded=0;" edge="1" parent="1">
          <mxGeometry width="50" height="50" relative="1" as="geometry">
            <mxPoint x="730" y="270" as="sourcePoint" />
            <mxPoint x="1290" y="270" as="targetPoint" />
          </mxGeometry>
        </mxCell>
        <mxCell id="Mygo9_ZUIF-GsIIBd7cb-21" value="" style="endArrow=classic;html=1;rounded=0;" edge="1" parent="1">
          <mxGeometry width="50" height="50" relative="1" as="geometry">
            <mxPoint x="1270" y="317.14" as="sourcePoint" />
            <mxPoint x="750" y="317.14" as="targetPoint" />
          </mxGeometry>
        </mxCell>
        <mxCell id="Mygo9_ZUIF-GsIIBd7cb-22" value="" style="endArrow=classic;html=1;rounded=0;" edge="1" parent="1">
          <mxGeometry width="50" height="50" relative="1" as="geometry">
            <mxPoint x="1380" y="350" as="sourcePoint" />
            <mxPoint x="1080" y="840" as="targetPoint" />
          </mxGeometry>
        </mxCell>
        <mxCell id="Mygo9_ZUIF-GsIIBd7cb-23" value="" style="endArrow=classic;html=1;rounded=0;" edge="1" parent="1">
          <mxGeometry width="50" height="50" relative="1" as="geometry">
            <mxPoint x="1020" y="810" as="sourcePoint" />
            <mxPoint x="1310" y="330" as="targetPoint" />
          </mxGeometry>
        </mxCell>
        <mxCell id="Mygo9_ZUIF-GsIIBd7cb-24" value="" style="endArrow=classic;html=1;rounded=0;" edge="1" parent="1">
          <mxGeometry width="50" height="50" relative="1" as="geometry">
            <mxPoint x="-80" y="320" as="sourcePoint" />
            <mxPoint x="590" y="320" as="targetPoint" />
          </mxGeometry>
        </mxCell>
        <mxCell id="Mygo9_ZUIF-GsIIBd7cb-25" value="" style="endArrow=classic;html=1;rounded=0;" edge="1" parent="1">
          <mxGeometry width="50" height="50" relative="1" as="geometry">
            <mxPoint x="570" y="270" as="sourcePoint" />
            <mxPoint x="-80" y="270" as="targetPoint" />
          </mxGeometry>
        </mxCell>
        <mxCell id="Mygo9_ZUIF-GsIIBd7cb-28" value="&lt;font style=&quot;font-size: 19px;&quot;&gt;1: Upload&amp;nbsp; files&lt;/font&gt;" style="text;html=1;align=center;verticalAlign=middle;whiteSpace=wrap;rounded=0;" vertex="1" parent="1">
          <mxGeometry x="165" y="230" width="170" height="30" as="geometry" />
        </mxCell>
        <mxCell id="Mygo9_ZUIF-GsIIBd7cb-29" value="&lt;font style=&quot;font-size: 19px;&quot;&gt;2: Extract text from files&lt;/font&gt;" style="text;html=1;align=center;verticalAlign=middle;whiteSpace=wrap;rounded=0;" vertex="1" parent="1">
          <mxGeometry x="840" y="230" width="293" height="30" as="geometry" />
        </mxCell>
        <mxCell id="Mygo9_ZUIF-GsIIBd7cb-30" value="&lt;font style=&quot;font-size: 19px;&quot;&gt;3: Generate quizzes&lt;/font&gt;" style="text;html=1;align=center;verticalAlign=middle;resizable=0;points=[];autosize=1;strokeColor=none;fillColor=none;" vertex="1" parent="1">
          <mxGeometry x="1420" y="275" width="190" height="40" as="geometry" />
        </mxCell>
        <mxCell id="Mygo9_ZUIF-GsIIBd7cb-31" value="&lt;font style=&quot;font-size: 19px;&quot;&gt;5: Confirm save of quizzes&lt;/font&gt;" style="text;html=1;align=center;verticalAlign=middle;whiteSpace=wrap;rounded=0;" vertex="1" parent="1">
          <mxGeometry x="950" y="470" width="230" height="30" as="geometry" />
        </mxCell>
        <mxCell id="Mygo9_ZUIF-GsIIBd7cb-32" value="&lt;font style=&quot;font-size: 19px;&quot;&gt;4: Save quizzes to database&lt;/font&gt;" style="text;html=1;align=center;verticalAlign=middle;whiteSpace=wrap;rounded=0;" vertex="1" parent="1">
          <mxGeometry x="1280" y="520" width="270" height="30" as="geometry" />
        </mxCell>
        <mxCell id="Mygo9_ZUIF-GsIIBd7cb-34" value="&lt;font style=&quot;font-size: 18px;&quot;&gt;6: Send qizzes to be displayed&lt;/font&gt;" style="text;html=1;align=center;verticalAlign=middle;whiteSpace=wrap;rounded=0;" vertex="1" parent="1">
          <mxGeometry x="846.5" y="320" width="280" height="30" as="geometry" />
        </mxCell>
        <mxCell id="Mygo9_ZUIF-GsIIBd7cb-35" value="&lt;font style=&quot;font-size: 18px;&quot;&gt;7: Show questions&lt;/font&gt;" style="text;html=1;align=center;verticalAlign=middle;whiteSpace=wrap;rounded=0;" vertex="1" parent="1">
          <mxGeometry x="70" y="330" width="280" height="30" as="geometry" />
        </mxCell>
        <mxCell id="Mygo9_ZUIF-GsIIBd7cb-36" value="&lt;font style=&quot;font-size: 18px;&quot;&gt;8: Submit answers&amp;nbsp;&lt;/font&gt;" style="text;html=1;align=center;verticalAlign=middle;whiteSpace=wrap;rounded=0;" vertex="1" parent="1">
          <mxGeometry x="110" y="190" width="280" height="30" as="geometry" />
        </mxCell>
        <mxCell id="Mygo9_ZUIF-GsIIBd7cb-37" value="&lt;font style=&quot;font-size: 18px;&quot;&gt;9: Send answers&lt;/font&gt;" style="text;html=1;align=center;verticalAlign=middle;whiteSpace=wrap;rounded=0;" vertex="1" parent="1">
          <mxGeometry x="840" y="190" width="280" height="30" as="geometry" />
        </mxCell>
        <mxCell id="Mygo9_ZUIF-GsIIBd7cb-38" value="&lt;font style=&quot;font-size: 18px;&quot;&gt;10: Save answers to database&lt;/font&gt;" style="text;html=1;align=center;verticalAlign=middle;whiteSpace=wrap;rounded=0;" vertex="1" parent="1">
          <mxGeometry x="1270" y="585" width="280" height="30" as="geometry" />
        </mxCell>
        <mxCell id="Mygo9_ZUIF-GsIIBd7cb-39" value="&lt;font style=&quot;font-size: 18px;&quot;&gt;11: Confirm save of answers&lt;/font&gt;" style="text;html=1;align=center;verticalAlign=middle;whiteSpace=wrap;rounded=0;" vertex="1" parent="1">
          <mxGeometry x="910" y="530" width="280" height="30" as="geometry" />
        </mxCell>
        <mxCell id="Mygo9_ZUIF-GsIIBd7cb-40" value="&lt;font style=&quot;font-size: 18px;&quot;&gt;12: Upgrade progress after answers&lt;/font&gt;" style="text;html=1;align=center;verticalAlign=middle;whiteSpace=wrap;rounded=0;" vertex="1" parent="1">
          <mxGeometry x="840" y="360" width="310" height="30" as="geometry" />
        </mxCell>
        <mxCell id="Mygo9_ZUIF-GsIIBd7cb-41" value="&lt;font style=&quot;font-size: 18px;&quot;&gt;6: Send qizzes to be displayed&lt;/font&gt;" style="text;html=1;align=center;verticalAlign=middle;whiteSpace=wrap;rounded=0;" vertex="1" parent="1">
          <mxGeometry x="90" y="380" width="280" height="30" as="geometry" />
        </mxCell>
      </root>
    </mxGraphModel>
  </diagram>
</mxfile>
